<svg width="21" height="16" viewBox="0 0 21 16" fill="none" xmlns="http://www.w3.org/2000/svg">
<path d="M6.76598 12.5765H6.76694C6.76774 12.5765 6.76854 12.5763 6.76934 12.5763H17.9238C18.1984 12.5763 18.4399 12.3941 18.5153 12.1301L20.9763 3.51681C21.0293 3.33112 20.9921 3.13148 20.876 2.97736C20.7597 2.82323 20.5778 2.73254 20.3848 2.73254H5.34709L4.90729 0.75338C4.84465 0.471878 4.59503 0.271606 4.30664 0.271606H0.615234C0.275413 0.271606 0 0.54702 0 0.886841C0 1.22666 0.275413 1.50208 0.615234 1.50208H3.81317C3.89104 1.85279 5.91779 10.9733 6.03442 11.498C5.38058 11.7823 4.92187 12.4342 4.92187 13.1915C4.92187 14.2092 5.74988 15.0372 6.76758 15.0372H17.9238C18.2636 15.0372 18.5391 14.7618 18.5391 14.422C18.5391 14.0822 18.2636 13.8068 17.9238 13.8068H6.76758C6.4284 13.8068 6.15234 13.5307 6.15234 13.1915C6.15234 12.8528 6.42744 12.5773 6.76598 12.5765ZM19.5691 3.96301L17.4597 11.3458H7.26105L5.62042 3.96301H19.5691Z" fill="black"/>
</svg>
